HIERARCHY
ROOT hip
{
  OFFSET 230.897 79.4799 -1.75603
  CHANNELS 6 Xposition Yposition Zposition Zrotation Xrotation Yrotation
  JOINT abdomen
  {
    OFFSET 0 20.6881 -0.73152
    CHANNELS 3 Zrotation Xrotation Yrotation
    JOINT chest
    {
      OFFSET 0 11.7043 -0.48768
      CHANNELS 3 Zrotation Xrotation Yrotation
      JOINT neck
      {
        OFFSET 0 22.1894 -2.19456
        CHANNELS 3 Zrotation Xrotation Yrotation
        JOINT head
        {
          OFFSET -0.24384 7.07133 1.2192
          CHANNELS 3 Zrotation Xrotation Yrotation
          JOINT leftEye
          {
            OFFSET 4.14528 8.04674 8.04672
            CHANNELS 3 Zrotation Xrotation Yrotation
            End Site
            {
              OFFSET 1 0 0
            }
          }
          JOINT rightEye
          {
            OFFSET -3.6576 8.04674 8.04672
            CHANNELS 3 Zrotation Xrotation Yrotation
            End Site
            {
              OFFSET 1 0 0
            }
          }
        }
      }
      JOINT rCollar
      {
        OFFSET -2.68224 19.2634 -4.8768
        CHANNELS 3 Zrotation Xrotation Yrotation
        JOINT rShldr
        {
          OFFSET -8.77824 -1.95073 1.46304
          CHANNELS 3 Zrotation Xrotation Yrotation
          JOINT rForeArm
          {
            OFFSET -28.1742 -1.7115 0.48768
            CHANNELS 3 Zrotation Xrotation Yrotation
            JOINT rHand
            {
              OFFSET -22.5879 0.773209 7.07136
              CHANNELS 3 Zrotation Xrotation Yrotation
              JOINT rThumb1
              {
                OFFSET -1.2192 -0.487915 3.41376
                CHANNELS 3 Zrotation Xrotation Yrotation
                JOINT rThumb2
                {
                  OFFSET -3.37035 -0.52449 3.41376
                  CHANNELS 3 Zrotation Xrotation Yrotation
                  End Site
                  {
                    OFFSET -1.78271 -1.18214 1.43049
                  }
                }
              }
              JOINT rIndex1
              {
                OFFSET -7.75947 0.938293 5.60832
                CHANNELS 3 Zrotation Xrotation Yrotation
                JOINT rIndex2
                {
                  OFFSET -2.54057 -0.884171 1.56538
                  CHANNELS 3 Zrotation Xrotation Yrotation
                  End Site
                  {
                    OFFSET -1.62519 -0.234802 1.16502
                  }
                }
              }
              JOINT rMid1
              {
                OFFSET -8.24714 1.18213 3.41376
                CHANNELS 3 Zrotation Xrotation Yrotation
                JOINT rMid2
                {
                  OFFSET -3.10165 -0.590103 1.0647
                  CHANNELS 3 Zrotation Xrotation Yrotation
                  End Site
                  {
                    OFFSET -2.48547 -0.328903 0.83742
                  }
                }
              }
              JOINT rRing1
              {
                OFFSET -8.82822 0.546677 1.51678
                CHANNELS 3 Zrotation Xrotation Yrotation
                JOINT rRing2
                {
                  OFFSET -2.60934 -0.819778 -0.0198488
                  CHANNELS 3 Zrotation Xrotation Yrotation
                  End Site
                  {
                    OFFSET -2.33842 -0.294052 0.168128
                  }
                }
              }
              JOINT rPinky1
              {
                OFFSET -8.27202 -0.0477905 -0.4584
                CHANNELS 3 Zrotation Xrotation Yrotation
                JOINT rPinky2
                {
                  OFFSET -1.82734 -0.647385 -0.700984
                  CHANNELS 3 Zrotation Xrotation Yrotation
                  End Site
                  {
                    OFFSET -1.69225 -0.51767 -0.607171
                  }
                }
              }
            }
          }
        }
      }
      JOINT lCollar
      {
        OFFSET 2.68224 19.2634 -4.8768
        CHANNELS 3 Zrotation Xrotation Yrotation
        JOINT lShldr
        {
          OFFSET 8.77824 -1.95073 1.46304
          CHANNELS 3 Zrotation Xrotation Yrotation
          JOINT lForeArm
          {
            OFFSET 28.1742 -1.7115 0.48768
            CHANNELS 3 Zrotation Xrotation Yrotation
            JOINT lHand
            {
              OFFSET 22.5879 0.773209 7.07136
              CHANNELS 3 Zrotation Xrotation Yrotation
              JOINT lThumb1
              {
                OFFSET 1.2192 -0.487915 3.41376
                CHANNELS 3 Zrotation Xrotation Yrotation
                JOINT lThumb2
                {
                  OFFSET 3.37035 -0.52449 3.41376
                  CHANNELS 3 Zrotation Xrotation Yrotation
                  End Site
                  {
                    OFFSET 1.78271 -1.18214 1.43049
                  }
                }
              }
              JOINT lIndex1
              {
                OFFSET 7.75947 0.938293 5.60832
                CHANNELS 3 Zrotation Xrotation Yrotation
                JOINT lIndex2
                {
                  OFFSET 2.54057 -0.884171 1.56538
                  CHANNELS 3 Zrotation Xrotation Yrotation
                  End Site
                  {
                    OFFSET 1.62519 -0.234802 1.16502
                  }
                }
              }
              JOINT lMid1
              {
                OFFSET 8.24714 1.18213 3.41376
                CHANNELS 3 Zrotation Xrotation Yrotation
                JOINT lMid2
                {
                  OFFSET 3.10165 -0.590103 1.0647
                  CHANNELS 3 Zrotation Xrotation Yrotation
                  End Site
                  {
                    OFFSET 2.48547 -0.328903 0.83742
                  }
                }
              }
              JOINT lRing1
              {
                OFFSET 8.82822 0.546677 1.51678
                CHANNELS 3 Zrotation Xrotation Yrotation
                JOINT lRing2
                {
                  OFFSET 2.60934 -0.819778 -0.0198488
                  CHANNELS 3 Zrotation Xrotation Yrotation
                  End Site
                  {
                    OFFSET 2.33842 -0.294052 0.168128
                  }
                }
              }
              JOINT lPinky1
              {
                OFFSET 8.27202 -0.0477905 -0.4584
                CHANNELS 3 Zrotation Xrotation Yrotation
                JOINT lPinky2
                {
                  OFFSET 1.82734 -0.647385 -0.700984
                  CHANNELS 3 Zrotation Xrotation Yrotation
                  End Site
                  {
                    OFFSET 1.69225 -0.51767 -0.607171
                  }
                }
              }
            }
          }
        }
      }
    }
  }
  JOINT rButtock
  {
    OFFSET -8.77824 4.35084 1.2192
    CHANNELS 3 Zrotation Xrotation Yrotation
    JOINT rThigh
    {
      OFFSET 0 -1.70687 -2.19456
      CHANNELS 3 Zrotation Xrotation Yrotation
      JOINT rShin
      {
        OFFSET 0 -36.8199 0.73152
        CHANNELS 3 Zrotation Xrotation Yrotation
        JOINT rFoot
        {
          OFFSET 0.73152 -45.1104 -5.12064
          CHANNELS 3 Zrotation Xrotation Yrotation
          End Site
          {
            OFFSET -1.1221 -3.69964 12.103
          }
        }
      }
    }
  }
  JOINT lButtock
  {
    OFFSET 8.77824 4.35084 1.2192
    CHANNELS 3 Zrotation Xrotation Yrotation
    JOINT lThigh
    {
      OFFSET 0 -1.70687 -2.19456
      CHANNELS 3 Zrotation Xrotation Yrotation
      JOINT lShin
      {
        OFFSET 0 -36.8199 0.73152
        CHANNELS 3 Zrotation Xrotation Yrotation
        JOINT lFoot
        {
          OFFSET -0.73152 -45.1104 -5.12064
          CHANNELS 3 Zrotation Xrotation Yrotation
          End Site
          {
            OFFSET 1.1221 -3.69964 12.103
          }
        }
      }
    }
  }
}
MOTION
Frames:	9
Frame Time:	0.00833333
-138.628 83.2755 -3.99591 -1.56851 -1.03781 85.6506 -1.74623 6.52413 4.94583 -0.741017 1.41598 1.4745 7.24482 4.57308 4.97538 -4.56437 -17.8208 7.73751 -0 0 0 -0 0 0 -2.69876e-014 -1.80246e-012 -4.81059e-014 81.7224 32.8463 4.40425 -13.704 -6.71811 24.9605 -0.390836 -17.4972 -2.53931 6.72741e-010 1.87252e-010 -1.83346e-010 1.16686e-009 3.21265e-010 -3.09787e-010 6.72743e-010 1.87253e-010 -1.83359e-010 7.73091 5.47488 0.417314 6.72741e-010 1.87255e-010 -1.83346e-010 2.90554 0.965183 0.102902 6.72752e-010 1.87255e-010 -1.83352e-010 10.2786 0.731801 0.0259123 6.72736e-010 1.87256e-010 -1.83353e-010 2.22167 -0.733487 -0.20892 -2.70836e-014 -1.80245e-012 -4.85035e-014 -78.5497 34.9964 2.33625 13.9722 -6.93201 -25.4982 0.000117982 -0.310152 0.0435894 3.70169e-010 -2.50341e-010 -2.18819e-010 6.38804e-010 -4.33513e-010 -3.78388e-010 3.70162e-010 -2.50342e-010 -2.18816e-010 -7.73091 5.47488 -0.417314 3.70164e-010 -2.50341e-010 -2.18819e-010 -2.90554 0.965183 -0.102902 3.70161e-010 -2.50344e-010 -2.18818e-010 -10.2786 0.731801 -0.0259123 3.70172e-010 -2.50345e-010 -2.18822e-010 -2.22167 -0.733487 0.20892 -2.03217e-016 0 -3.88251e-019 7.42611 -13.259 15.9263 -0.144159 33.6281 0.968396 -19.7247 -25.3946 -34.9525 2.03217e-016 0 3.88251e-019 -6.30256 -13.9195 -16.3783 0.19423 34.5203 -0.906933 13.8319 -24.4058 25.8024 
-138.43 83.2199 -4.04957 -1.77801 -1.10326 85.4844 -1.76726 6.53792 5.0517 -0.752263 1.44752 1.50606 7.28164 4.50821 5.00724 -4.76286 -17.9675 7.74842 -0 0 0 -0 0 0 -1.22676e-014 -1.18232e-012 -3.2893e-014 81.5346 33.7028 5.25672 -13.7151 -6.72423 24.9884 -0.383599 -17.3114 -2.51106 7.42953e-010 1.2895e-011 -4.38341e-010 1.28993e-009 1.96929e-011 -7.49154e-010 7.42954e-010 1.28966e-011 -4.38353e-010 7.73091 5.47488 0.417314 7.42953e-010 1.28984e-011 -4.38339e-010 2.90554 0.965183 0.102902 7.42964e-010 1.28988e-011 -4.38345e-010 10.2786 0.731801 0.0259123 7.42946e-010 1.28996e-011 -4.38342e-010 2.22167 -0.733487 -0.20892 -1.23328e-014 -1.18231e-012 -3.32211e-014 -78.9603 35.1883 2.95831 13.9527 -6.91595 -25.4595 -4.89145e-005 -0.571248 0.0802792 2.70598e-010 -2.56339e-010 1.85194e-010 4.6709e-010 -4.43714e-010 3.20251e-010 2.70592e-010 -2.56339e-010 1.85197e-010 -7.73091 5.47488 -0.417314 2.70594e-010 -2.56339e-010 1.85193e-010 -2.90554 0.965183 -0.102902 2.70591e-010 -2.56341e-010 1.85194e-010 -10.2786 0.731801 -0.0259123 2.70601e-010 -2.56342e-010 1.8519e-010 -2.22167 -0.733487 0.20892 -2.03217e-016 0 -3.88251e-019 7.3864 -13.3996 15.7944 -0.145055 33.6733 0.964528 -19.6142 -25.2773 -34.8896 2.03217e-016 0 3.88251e-019 -6.27087 -13.9867 -16.2265 0.194823 34.5992 -0.913577 13.93 -24.8146 25.6933 
-138.248 83.1595 -4.16034 -2.03739 -1.21138 85.3469 -1.73738 6.50079 5.17437 -0.808648 1.50077 1.54415 7.34782 4.39928 5.04122 -4.96054 -18.0621 7.75395 -0 0 0 -0 0 0 1.02444e-014 3.35e-013 1.32036e-014 81.3838 34.6468 6.07454 -13.8291 -6.81219 25.2221 -0.384734 -17.3135 -2.51174 8.13232e-010 -4.0262e-010 -5.77626e-010 1.41025e-009 -7.00507e-010 -9.87572e-010 8.13232e-010 -4.02617e-010 -5.77636e-010 7.73091 5.47488 0.417314 8.13231e-010 -4.02616e-010 -5.77621e-010 2.90554 0.965183 0.102902 8.13241e-010 -4.02616e-010 -5.77627e-010 10.2786 0.731801 0.0259123 8.13224e-010 -4.02615e-010 -5.77619e-010 2.22167 -0.733487 -0.20892 1.02311e-014 3.35002e-013 1.29831e-014 -79.3973 35.3959 3.6657 13.9533 -6.91622 -25.4614 0.000601344 -1.04144 0.146368 1.54321e-010 -2.35946e-010 7.34146e-010 2.66729e-010 -4.08397e-010 1.26936e-009 1.54316e-010 -2.35946e-010 7.34149e-010 -7.73091 5.47488 -0.417314 1.54318e-010 -2.35946e-010 7.34143e-010 -2.90554 0.965183 -0.102902 1.54314e-010 -2.35947e-010 7.34144e-010 -10.2786 0.731801 -0.0259123 1.54325e-010 -2.35946e-010 7.34139e-010 -2.22167 -0.733487 0.20892 -2.03217e-016 0 -3.88251e-019 7.40224 -13.5592 15.7082 -0.14561 33.7059 0.960704 -19.5387 -25.1125 -34.9192 2.03217e-016 0 3.88251e-019 -6.20727 -14.0995 -16.094 0.19582 34.6991 -0.920378 13.999 -25.2798 25.5018 
-138.008 83.0994 -4.28426 -2.30834 -1.33603 85.2343 -1.69389 6.44938 5.29223 -0.873839 1.55676 1.58116 7.41581 4.28433 5.07552 -5.15272 -18.1431 7.76015 -0 0 0 -0 0 0 3.04245e-014 1.84869e-012 6.02523e-014 81.238 35.6129 6.82538 -14.0295 -6.97328 25.6243 -0.394815 -17.5369 -2.54618 8.28832e-010 -8.28097e-010 -6.2395e-010 1.43491e-009 -1.43814e-009 -1.06594e-009 8.28831e-010 -8.28094e-010 -6.23958e-010 7.73091 5.47488 0.417314 8.2883e-010 -8.28094e-010 -6.23941e-010 2.90554 0.965183 0.102902 8.28839e-010 -8.28094e-010 -6.23948e-010 10.2786 0.731801 0.0259123 8.28822e-010 -8.28093e-010 -6.23935e-010 2.22167 -0.733487 -0.20892 3.04553e-014 1.84869e-012 6.01378e-014 -79.8964 35.604 4.46066 13.9797 -6.93747 -25.5142 0.00253177 -1.56561 0.220077 3.15666e-011 -2.13669e-010 1.20098e-009 5.52044e-011 -3.69926e-010 2.07641e-009 3.15624e-011 -2.13669e-010 1.20098e-009 -7.73091 5.47488 -0.417314 3.15637e-011 -2.13669e-010 1.20097e-009 -2.90554 0.965183 -0.102902 3.15595e-011 -2.1367e-010 1.20097e-009 -10.2786 0.731801 -0.0259123 3.15708e-011 -2.13667e-010 1.20097e-009 -2.22167 -0.733487 0.20892 -2.03217e-016 0 -3.88251e-019 7.43978 -13.7062 15.6536 -0.146184 33.7469 0.957986 -19.496 -24.9703 -34.9792 2.03217e-016 0 3.88251e-019 -6.13792 -14.2014 -15.976 0.196763 34.7938 -0.927005 14.0617 -25.7574 25.299 
-137.72 83.0355 -4.42259 -2.55234 -1.4475 85.1403 -1.67446 6.4203 5.38371 -0.911429 1.5965 1.60946 7.45796 4.20141 5.10836 -5.33459 -18.2493 7.77308 -0 0 0 -0 0 0 3.81492e-014 2.45794e-012 7.83212e-014 81.0728 36.5369 7.47223 -14.2991 -7.19828 26.1577 -0.415329 -18.015 -2.61962 7.35006e-010 -1.03234e-009 -6.00063e-010 1.27105e-009 -1.79199e-009 -1.02517e-009 7.35006e-010 -1.03234e-009 -6.00069e-010 7.73091 5.47488 0.417314 7.35003e-010 -1.03234e-009 -6.0005e-010 2.90554 0.965183 0.102902 7.35012e-010 -1.03234e-009 -6.00059e-010 10.2786 0.731801 0.0259123 7.34996e-010 -1.03234e-009 -6.00043e-010 2.22167 -0.733487 -0.20892 3.81866e-014 2.45794e-012 7.82715e-014 -80.4927 35.7975 5.34492 14.037 -6.98428 -25.6285 0.00485273 -1.98865 0.2796 -8.74382e-011 -2.14016e-010 1.35863e-009 -1.49997e-010 -3.70665e-010 2.34883e-009 -8.74418e-011 -2.14016e-010 1.35863e-009 -7.73091 5.47488 -0.417314 -8.74403e-011 -2.14016e-010 1.35862e-009 -2.90554 0.965183 -0.102902 -8.74451e-011 -2.14016e-010 1.35862e-009 -10.2786 0.731801 -0.0259123 -8.74338e-011 -2.14012e-010 1.35862e-009 -2.22167 -0.733487 0.20892 -2.03217e-016 0 -3.88251e-019 7.46512 -13.809 15.616 -0.147136 33.8175 0.957435 -19.4847 -24.9204 -35.0077 2.03217e-016 0 3.88251e-019 -6.0895 -14.2359 -15.8679 0.197173 34.8574 -0.933115 14.1439 -26.2029 25.1565 
-137.398 82.9554 -4.49727 -2.76889 -1.55046 85.0428 -1.66265 6.40589 5.4586 -0.922213 1.61449 1.63213 7.46016 4.16163 5.14249 -5.50516 -18.3833 7.80262 -0 0 0 -0 0 0 2.55159e-014 1.59526e-012 4.90152e-014 80.8918 37.4968 7.97897 -14.6601 -7.50583 26.8785 -0.451037 -18.7205 -2.73049 4.33087e-010 -8.93479e-010 -4.6549e-010 7.48534e-010 -1.55047e-009 -7.97166e-010 4.33088e-010 -8.93475e-010 -4.65496e-010 7.73091 5.47488 0.417314 4.33083e-010 -8.93477e-010 -4.65474e-010 2.90554 0.965183 0.102902 4.33093e-010 -8.93476e-010 -4.65487e-010 10.2786 0.731801 0.0259123 4.33078e-010 -8.93476e-010 -4.65473e-010 2.22167 -0.733487 -0.20892 2.54989e-014 1.59526e-012 4.89756e-014 -81.2338 36.0148 6.3774 14.1476 -7.07512 -25.8495 0.00654901 -2.28017 0.32063 -2.37511e-010 -2.52633e-010 1.02325e-009 -4.091e-010 -4.37715e-010 1.76872e-009 -2.37515e-010 -2.52632e-010 1.02325e-009 -7.73091 5.47488 -0.417314 -2.37513e-010 -2.52632e-010 1.02324e-009 -2.90554 0.965183 -0.102902 -2.37518e-010 -2.52633e-010 1.02324e-009 -10.2786 0.731801 -0.0259123 -2.37507e-010 -2.52629e-010 1.02324e-009 -2.22167 -0.733487 0.20892 -2.03217e-016 0 -3.88251e-019 7.50568 -13.8264 15.6763 -0.147734 33.8791 0.959344 -19.5541 -25.0229 -35.0319 2.03217e-016 0 3.88251e-019 -6.05834 -14.1983 -15.7686 0.197057 34.897 -0.939514 14.272 -26.62 25.1118 
-136.998 82.8658 -4.63922 -2.97522 -1.65583 84.9521 -1.64724 6.39244 5.52324 -0.922069 1.62099 1.65152 7.43935 4.14439 5.17778 -5.66674 -18.527 7.84283 -0 0 0 -0 0 0 -3.41834e-016 -1.49816e-013 -8.23093e-015 80.7153 38.4986 8.36905 -15.1034 -7.8876 27.7864 -0.503528 -19.6475 -2.87876 -1.97043e-011 -5.54881e-010 -2.23612e-010 -3.46358e-011 -9.6243e-010 -3.86444e-010 -1.97017e-011 -5.54879e-010 -2.23619e-010 7.73091 5.47488 0.417314 -1.97097e-011 -5.5488e-010 -2.23593e-010 2.90554 0.965183 0.102902 -1.96992e-011 -5.5488e-010 -2.23611e-010 10.2786 0.731801 0.0259123 -1.97108e-011 -5.5488e-010 -2.23601e-010 2.22167 -0.733487 -0.20892 -4.53361e-016 -1.49811e-013 -8.29304e-015 -82.093 36.2443 7.54027 14.3006 -7.20107 -26.1578 0.0079142 -2.51923 0.354287 -4.11592e-010 -3.13412e-010 3.57029e-010 -7.09801e-010 -5.43214e-010 6.16516e-010 -4.11596e-010 -3.13411e-010 3.57033e-010 -7.73091 5.47488 -0.417314 -4.11593e-010 -3.13411e-010 3.57032e-010 -2.90554 0.965183 -0.102902 -4.11598e-010 -3.13411e-010 3.5703e-010 -10.2786 0.731801 -0.0259123 -4.11589e-010 -3.13409e-010 3.57024e-010 -2.22167 -0.733487 0.20892 -2.03217e-016 0 -3.88251e-019 7.56751 -13.7861 15.814 -0.148073 33.9353 0.963149 -19.6888 -25.2268 -35.0708 2.03217e-016 0 3.88251e-019 -6.03429 -14.1153 -15.6808 0.196612 34.922 -0.946076 14.428 -27.0269 25.1213 
-136.566 82.7767 -4.85611 -3.15897 -1.73916 84.9065 -1.67409 6.40748 5.55088 -0.897175 1.62069 1.65894 7.41433 4.14007 5.20813 -5.81963 -18.6878 7.87613 -0 0 0 -0 0 0 -2.69935e-014 -1.9426e-012 -6.66045e-014 80.5509 39.3705 8.68889 -15.5684 -8.29606 28.7596 -0.572146 -20.8609 -3.07336 -4.44281e-010 -1.8325e-010 3.70394e-011 -7.69203e-010 -3.17326e-010 5.71833e-011 -4.44277e-010 -1.83248e-010 3.70327e-011 7.73091 5.47488 0.417314 -4.44287e-010 -1.8325e-010 3.70616e-011 2.90554 0.965183 0.102902 -4.44276e-010 -1.83249e-010 3.70388e-011 10.2786 0.731801 0.0259123 -4.44285e-010 -1.83249e-010 3.70436e-011 2.22167 -0.733487 -0.20892 -2.7202e-014 -1.94259e-012 -6.67078e-014 -82.9853 36.3992 8.71486 14.4521 -7.3261 -26.4662 0.00905823 -2.71494 0.381848 -5.36635e-010 -3.7323e-010 -3.47998e-010 -9.25824e-010 -6.47081e-010 -6.02797e-010 -5.36639e-010 -3.7323e-010 -3.47993e-010 -7.73091 5.47488 -0.417314 -5.36636e-010 -3.73229e-010 -3.47991e-010 -2.90554 0.965183 -0.102902 -5.36641e-010 -3.7323e-010 -3.47994e-010 -10.2786 0.731801 -0.0259123 -5.36633e-010 -3.73229e-010 -3.48e-010 -2.22167 -0.733487 0.20892 -2.03217e-016 0 -3.88251e-019 7.58494 -13.7601 15.8626 -0.149774 34.0699 0.968649 -19.7895 -25.4349 -35.049 2.03217e-016 0 3.88251e-019 -6.03453 -13.977 -15.6049 0.195626 34.9088 -0.951049 14.5716 -27.3996 25.1347 
-136.25 82.7149 -4.99067 -3.30763 -1.77393 84.9432 -1.78896 6.47852 5.51478 -0.833718 1.6183 1.64566 7.40395 4.13907 5.22747 -5.96431 -18.8731 7.88489 -0 0 0 -0 0 0 -4.20085e-014 -2.9484e-012 -9.92929e-014 80.4069 39.94 8.98272 -16.0009 -8.68804 29.6746 -0.659319 -22.4255 -3.32502 -6.61556e-010 5.47183e-011 2.27934e-010 -1.14591e-009 9.53689e-011 3.83906e-010 -6.61551e-010 5.47187e-011 2.27928e-010 7.73091 5.47488 0.417314 -6.61563e-010 5.47175e-011 2.27957e-010 2.90554 0.965183 0.102902 -6.61551e-010 5.47178e-011 2.27933e-010 10.2786 0.731801 0.0259123 -6.61559e-010 5.47183e-011 2.27934e-010 2.22167 -0.733487 -0.20892 -4.2279e-014 -2.9484e-012 -9.9442e-014 -83.815 36.3981 9.77633 14.5598 -7.41517 -26.6873 0.0101581 -2.87641 0.404596 -5.39595e-010 -4.08965e-010 -7.99811e-010 -9.30892e-010 -7.09232e-010 -1.38423e-009 -5.39599e-010 -4.08965e-010 -7.99805e-010 -7.73091 5.47488 -0.417314 -5.39595e-010 -4.08964e-010 -7.99801e-010 -2.90554 0.965183 -0.102902 -5.39601e-010 -4.08965e-010 -7.99805e-010 -10.2786 0.731801 -0.0259123 -5.39593e-010 -4.08965e-010 -7.99811e-010 -2.22167 -0.733487 0.20892 -2.03217e-016 0 -3.88251e-019 7.49261 -13.8207 15.6555 -0.154504 34.3665 0.975685 -19.7563 -25.55 -34.8901 2.03217e-016 0 3.88251e-019 -6.07623 -13.7736 -15.5414 0.193883 34.8342 -0.952677 14.6614 -27.7148 25.1008 
